<?xml version="1.0" encoding="UTF-8"?>
<svg xmlns="http://www.w3.org/2000/svg" xmlns:xlink="http://www.w3.org/1999/xlink" width="30px" height="30px" viewBox="0 0 384 384" version="1.1">
<g id="surface1">
<path style=" stroke:none;fill-rule:nonzero;fill:rgb(9.411765%,9.019608%,9.019608%);fill-opacity:1;" d="M 57.601562 0 L 326.398438 0 C 358.210938 0 384 25.789062 384 57.601562 L 384 326.398438 C 384 358.210938 358.210938 384 326.398438 384 L 57.601562 384 C 25.789062 384 0 358.210938 0 326.398438 L 0 57.601562 C 0 25.789062 25.789062 0 57.601562 0 Z M 57.601562 0 "/>
<path style=" stroke:none;fill-rule:nonzero;fill:rgb(100%,100%,100%);fill-opacity:1;" d="M 251.25 374.25 C 261.75 374.25 260.25 387 260.25 387 L 123.75 387 C 123.75 387 122.25 374.25 132.75 374.25 C 142.5 374.25 144.75 369.75 144.75 365.25 L 144 332.25 C 90.75 344.25 79.5 306.75 79.5 306.75 C 70.5 284.25 58.5 279 58.5 279 C 40.5 267 59.25 267 59.25 267 C 78.75 268.5 89.25 286.5 89.25 286.5 C 105.75 315.75 133.5 307.5 144.75 303 C 146.25 290.25 151.5 282 156.75 276.75 C 114 272.25 69.75 255.75 69.75 182.25 C 69.75 161.25 77.25 144 89.25 130.5 C 87 126 81 106.5 91.5 80.25 C 91.5 80.25 107.25 75 144 99.75 C 175.5 90.75 208.5 90.75 240 99.75 C 276.75 75 292.5 80.25 292.5 80.25 C 303 106.5 297 126 294.75 130.5 C 306.75 144 314.25 161.25 314.25 182.25 C 314.25 255.75 269.25 272.25 226.5 276.75 C 234 282.75 240 294.75 240 312.75 L 239.25 365.25 C 239.25 369.75 241.5 374.25 251.25 374.25 Z M 251.25 374.25 "/>
</g>
</svg>
