<?xml version="1.0" standalone="no"?>
<!DOCTYPE svg PUBLIC "-//W3C//DTD SVG 20010904//EN"
 "http://www.w3.org/TR/2001/REC-SVG-20010904/DTD/svg10.dtd">
<svg version="1.0" xmlns="http://www.w3.org/2000/svg"
 width="256.000000pt" height="256.000000pt" viewBox="0 0 512.000000 512.000000"
 preserveAspectRatio="xMidYMid meet">

<g transform="translate(0.000000,512.000000) scale(0.100000,-0.100000)"
fill="#000000" stroke="none">
<path d="M4417 3933 c-2 -5 -3 -16 -1 -26 2 -13 -2 -17 -12 -13 -12 4 -12 2
-4 -14 8 -15 8 -20 -2 -20 -6 0 -3 -7 8 -15 19 -15 19 -15 0 -30 -11 -8 -16
-15 -10 -15 5 -1 -2 -10 -16 -22 -14 -12 -18 -19 -8 -15 25 9 30 -4 8 -20 -10
-7 -17 -20 -14 -27 3 -8 -2 -27 -12 -43 l-18 -28 29 25 28 25 -23 -32 c-13
-18 -28 -29 -34 -26 -6 3 -8 3 -4 -2 4 -4 3 -17 -3 -28 -8 -14 -8 -18 0 -13 7
4 11 -1 11 -13 0 -11 -4 -23 -10 -26 -6 -3 -7 1 -4 9 3 9 1 16 -4 16 -6 0 -9
-9 -7 -20 2 -10 -5 -30 -16 -45 -27 -33 -17 -32 17 3 15 15 22 19 15 10 -8
-10 -10 -18 -5 -18 5 0 -4 -10 -21 -21 -16 -12 -22 -19 -13 -16 9 3 19 0 22
-8 3 -9 0 -12 -10 -8 -9 3 -14 0 -12 -8 2 -8 -2 -13 -9 -12 -8 2 -10 -4 -6
-15 6 -15 5 -16 -13 -2 -17 14 -18 14 -6 -2 8 -9 11 -22 7 -27 -3 -6 0 -9 7
-8 7 2 10 2 5 0 -4 -3 -4 -9 -1 -15 4 -5 -4 -4 -17 2 -13 7 -21 9 -17 5 4 -5
3 -14 -3 -22 -8 -8 -8 -13 -1 -13 6 0 13 6 15 13 4 9 6 9 6 -1 1 -7 -6 -15
-14 -18 -8 -4 -13 -10 -10 -14 3 -5 -4 -15 -16 -23 -13 -9 -16 -17 -10 -22 6
-3 11 -1 11 5 0 6 5 8 11 4 8 -5 8 -9 -1 -14 -6 -4 -11 -9 -10 -11 3 -8 -20
-59 -26 -59 -3 0 -4 7 0 15 10 27 -3 16 -20 -16 -8 -17 -11 -28 -6 -25 6 3 12
-1 16 -9 7 -19 -14 -31 -25 -14 -5 8 -9 9 -9 3 0 -5 5 -15 12 -22 7 -7 8 -12
2 -12 -5 0 -15 5 -20 10 -7 7 -11 6 -11 -4 0 -8 4 -13 8 -10 4 2 10 0 14 -6 5
-9 -7 -14 -27 -11 -3 0 -2 -14 3 -31 5 -17 6 -34 4 -37 -3 -2 -5 1 -5 7 0 6
-7 9 -16 5 -11 -4 -67 46 -195 173 l-180 179 42 -90 c195 -425 312 -905 321
-1321 l2 -121 -32 -40 c-152 -192 -402 -320 -687 -352 l-90 -10 -30 37 c-16
20 -56 68 -87 105 -32 38 -58 73 -58 76 0 4 26 15 58 25 69 22 158 66 231 114
60 40 171 139 171 153 0 5 -22 -5 -48 -21 -86 -53 -235 -118 -373 -164 -473
-158 -1001 -117 -1463 113 -148 73 -159 67 -48 -25 78 -64 178 -122 277 -161
39 -15 72 -28 74 -29 1 -2 -35 -49 -80 -105 -46 -57 -87 -107 -90 -112 -4 -6
-46 -5 -109 3 -260 30 -483 137 -645 311 -39 42 -52 52 -38 30 25 -40 162
-181 176 -181 15 0 708 -693 704 -704 -2 -5 -19 -10 -38 -10 -37 -1 -84 -28
-71 -41 4 -5 1 -5 -7 0 -8 4 -17 2 -22 -6 -6 -10 -9 -11 -9 -1 0 6 -5 12 -11
12 -5 0 -8 -4 -5 -8 2 -4 -4 -14 -16 -21 -16 -10 -19 -10 -12 1 4 7 4 10 -1 6
-4 -4 -15 -2 -23 5 -13 10 -14 9 -7 -2 6 -11 4 -13 -9 -8 -14 6 -15 3 -6 -13
9 -16 8 -20 -5 -20 -9 0 -13 5 -10 10 3 6 1 10 -4 10 -6 0 -11 -6 -11 -14 0
-8 -4 -18 -10 -21 -6 -4 -7 1 -4 12 4 10 -8 2 -25 -17 -21 -23 -29 -28 -25
-15 6 16 5 18 -7 8 -7 -7 -18 -13 -23 -13 -6 0 -4 5 4 10 12 8 12 10 1 10 -8
0 -20 -8 -27 -17 -11 -14 -13 -15 -9 -2 4 10 0 16 -10 16 -11 0 -13 -6 -9 -21
6 -19 6 -19 -10 -3 -15 15 -36 15 -36 1 0 -3 5 -2 10 1 16 10 11 -11 -6 -25
-8 -8 -14 -9 -13 -4 1 5 1 16 0 24 -1 12 -4 12 -12 -3 -5 -9 -7 -23 -4 -30 4
-6 0 -4 -8 6 -15 18 -32 24 -22 7 3 -6 -1 -10 -10 -10 -10 0 -13 5 -9 12 4 7
3 8 -5 4 -6 -4 -9 -12 -6 -17 4 -5 -1 -9 -10 -9 -10 0 -13 -5 -9 -12 4 -7 3
-8 -5 -4 -9 6 -9 11 1 23 12 15 11 15 -9 3 -12 -8 -20 -18 -17 -22 3 -4 -2 -5
-11 -2 -10 4 -14 13 -11 23 5 12 2 11 -9 -3 -11 -14 -18 -16 -28 -8 -10 9 -13
6 -14 -11 -2 -15 0 -18 6 -8 6 9 11 10 15 2 4 -6 2 -12 -3 -12 -6 -1 -17 -2
-23 -3 -7 -1 -19 3 -27 8 -11 8 -13 8 -7 -1 18 -30 -27 -5 -119 66 -91 71
-259 235 -342 333 -140 168 -308 453 -378 641 -10 26 -20 45 -22 43 -8 -8 68
-189 129 -306 363 -700 1045 -1165 1836 -1250 159 -18 483 -8 632 19 475 84
895 297 1238 625 239 229 460 568 572 876 44 120 96 325 117 460 25 163 25
542 0 692 -57 339 -175 638 -360 916 -79 117 -91 131 -100 115z m19 -39 c-3
-9 -6 -18 -6 -20 0 -2 -5 -4 -11 -4 -8 0 -9 4 0 13 6 8 8 17 4 20 -3 4 -1 7 6
7 8 0 11 -6 7 -16z m-41 -164 c3 -5 -1 -10 -10 -10 -9 0 -13 5 -10 10 3 6 8
10 10 10 2 0 7 -4 10 -10z m-35 -125 c11 -13 10 -14 -4 -9 -9 3 -16 10 -16 15
0 13 6 11 20 -6z m-158 -419 c7 4 8 2 4 -5 -9 -13 -26 -5 -25 12 0 9 2 8 6 -1
2 -6 10 -9 15 -6z m-2340 -2289 c-18 -7 -30 -16 -25 -21 4 -5 2 -6 -5 -2 -19
12 2 31 35 33 27 2 27 1 -5 -10z"/>
<path d="M4395 3830 c-3 -5 -1 -10 4 -10 6 0 11 5 11 10 0 6 -2 10 -4 10 -3 0
-8 -4 -11 -10z"/>
<path d="M2023 3595 c-144 -50 -331 -139 -395 -189 -26 -19 -48 -32 -51 -30
-2 2 -10 -3 -18 -13 -12 -15 -12 -16 1 -8 8 5 21 10 28 11 8 2 21 9 30 17 53
46 336 172 482 214 64 19 67 20 54 32 -5 6 -59 -8 -131 -34z"/>
<path d="M2971 3613 c1 -4 25 -29 53 -55 45 -41 67 -52 154 -78 121 -36 226
-77 322 -125 39 -19 70 -33 70 -31 0 11 -174 118 -265 163 -139 69 -336 144
-334 126z"/>
<path d="M4105 3071 c-3 -5 -2 -12 3 -15 5 -3 9 1 9 9 0 17 -3 19 -12 6z"/>
<path d="M1990 2675 c-63 -20 -124 -75 -157 -143 -91 -185 39 -412 237 -412
148 0 264 126 264 285 -1 88 -26 149 -89 210 -71 69 -159 89 -255 60z"/>
<path d="M2970 2681 c-73 -24 -137 -77 -173 -145 -32 -60 -31 -203 1 -263 52
-98 137 -153 237 -153 100 0 185 55 237 153 31 57 33 203 4 257 -26 49 -84
108 -130 132 -43 22 -136 32 -176 19z"/>
<path d="M1590 809 c0 -5 5 -7 10 -4 6 3 10 8 10 11 0 2 -4 4 -10 4 -5 0 -10
-5 -10 -11z"/>
</g>
</svg>
